<svg width="71" height="32" viewBox="0 0 71 32" fill="none" xmlns="http://www.w3.org/2000/svg">
<path fill-rule="evenodd" clip-rule="evenodd" d="M63.2858 10.9459C61.5405 11.7029 59.9457 12.3946 58.6345 13.177C58.1172 13.4856 57.8687 13.9294 57.851 14.742C57.8313 15.6489 58.1295 16.8036 58.6273 18.0326C58.7825 18.4155 58.9312 18.8084 59.0736 19.208C60.3439 18.3621 61.8042 17.4008 63.2191 16.4895C65.4706 15.0394 67.7412 13.6278 68.8978 13.0719L70.5362 16.5147C69.6377 16.9465 67.5853 18.2101 65.2681 19.7025C63.5031 20.8393 61.6621 22.0578 60.2204 23.0245C60.9616 25.938 61.4384 28.8288 61.6623 30.7322L57.8911 31.1801C57.6514 29.1415 57.0901 25.8348 56.2068 22.7251C55.8794 21.5725 55.513 20.4657 55.1102 19.4715C54.5397 18.0632 54.018 16.3369 54.0545 14.6586C54.093 12.886 54.7768 11.0405 56.6958 9.89553C58.2393 8.97457 60.1383 8.15225 61.9132 7.38364C62.3607 7.18988 62.8003 6.99952 63.2243 6.81186C65.4619 5.82156 67.2925 4.8977 68.434 3.84617L71 6.65932C69.3336 8.1944 66.9403 9.33716 64.7548 10.3044C64.2557 10.5253 63.7651 10.7381 63.2858 10.9459Z" fill="#FFFFFF"/>
<path fill-rule="evenodd" clip-rule="evenodd" d="M5.02146 14.3971C8.22584 10.8758 13.6717 6.99414 20.6647 5.25286C28.418 3.32228 38.1722 3.99608 49.0449 10.9061L51.0746 7.68077C39.3414 0.22386 28.5263 -0.636304 19.7514 1.54865C11.0495 3.71545 4.45108 8.85106 0.987747 13.2771L0 14.5394L1.06897 15.733C5.37967 20.5464 12.907 26.9845 21.6265 29.9201C26.0125 31.3968 30.7643 32.0079 35.5729 31.0131C40.4003 30.0144 45.149 27.4247 49.5449 22.722L50.351 21.8596L49.9407 20.7506C48.4747 16.788 41.9688 10.6675 29.414 14.4237L30.4975 18.0812C39.7685 15.3075 44.2838 18.8219 45.8362 21.0742C42.2137 24.6318 38.4757 26.5163 34.8073 27.2752C30.8016 28.1039 26.7425 27.6178 22.8328 26.3015C15.6477 23.8825 9.18614 18.7301 5.02146 14.3971Z" fill="#FFFFFF"/>
<path d="M16.7764 11.0893C16.7764 12.825 15.3763 14.2321 13.6492 14.2321C11.922 14.2321 10.5219 12.825 10.5219 11.0893C10.5219 9.35362 11.922 7.94655 13.6492 7.94655C15.3763 7.94655 16.7764 9.35362 16.7764 11.0893Z" fill="#FFFFFF"/>
</svg>
